<?xml version="1.0" encoding="utf-8"?>
<!-- Generator: Adobe Illustrator 21.1.0, SVG Export Plug-In . SVG Version: 6.00 Build 0)  -->
<!DOCTYPE svg PUBLIC "-//W3C//DTD SVG 1.1//EN" "http://www.w3.org/Graphics/SVG/1.1/DTD/svg11.dtd">
<svg version="1.1" id="Layer_1" xmlns="http://www.w3.org/2000/svg" xmlns:xlink="http://www.w3.org/1999/xlink" x="0px" y="0px"
	 viewBox="0 0 882 359" style="enable-background:new 0 0 882 359;" xml:space="preserve">
<style type="text/css">
	.st0{fill:#FFFFFF;}
</style>
<path class="st0" d="M178.9,215.4c-0.8-5.9-0.4-14.4-0.4-18.6l8.9-100.5h32.9l-9,101.4c-1.9,22,6.7,37.6,28.6,37.6
	c22.4,0,34.3-15.9,36.2-35.4l9.3-103.7h32.9l-9.1,102.3c-3.7,39.4-29.8,69-72.1,69C204.2,267.5,182.9,246.2,178.9,215.4"/>
<path class="st0" d="M331.7,181.4C336,133,368.6,93,424.8,93c14.8,0,29,3.4,43.2,12.5l-3.8,39.9c-13-17.1-28.4-19.8-42.6-19.8
	c-35,0-54.2,24.3-57,55.1c-2.7,30,12.8,54.3,46.7,54.3c14.8,0,30.5-4.3,46.9-20.7l-3.6,41c-16,8.7-30.9,12.6-45.9,12.6
	C353.2,267.9,327.7,226.5,331.7,181.4"/>
<path class="st0" d="M494.4,96.2h32.9l-12,136.6h47.1c3.3,0,14.5-0.2,17.6-0.4c-0.2,1.7-3,31.5-3,31.5h-97.4L494.4,96.2z"/>
<path class="st0" d="M665.5,158.9c1.1-2.4,2-5.3,2.4-7.1c0,0,0.5,0,0.5,0c0.2,2.1,0.5,4.6,1.2,7.1c1.8,7.6,14.6,50.1,14.6,50.1
	l-41.5,0C642.8,209,665,159.9,665.5,158.9 M673.9,88.5l-2.3,0L581.7,264h34.9l12.6-26.6h63.3l7.9,26.6l34.8,0L673.9,88.5z"/>
</svg>
